<svg xmlns="http://www.w3.org/2000/svg" viewBox="0 0 512 512">
  <defs>
    <linearGradient id="bg" x1="76" y1="56" x2="430" y2="454" gradientUnits="userSpaceOnUse">
      <stop offset="0" stop-color="#21183d" />
      <stop offset="1" stop-color="#090814" />
    </linearGradient>
    <linearGradient id="lock" x1="142" y1="118" x2="374" y2="392" gradientUnits="userSpaceOnUse">
      <stop offset="0" stop-color="#f2e9ff" />
      <stop offset="1" stop-color="#8f78ff" />
    </linearGradient>
  </defs>
  <rect x="48" y="48" width="416" height="416" rx="104" fill="url(#bg)" />
  <path d="M170 238h172c22 0 40 18 40 40v96c0 22-18 40-40 40H170c-22 0-40-18-40-40v-96c0-22 18-40 40-40Z" fill="none" stroke="url(#lock)" stroke-width="34" stroke-linejoin="round" />
  <path d="M178 238v-42c0-54 35-94 78-94s78 40 78 94v42" fill="none" stroke="#f4ecff" stroke-width="34" stroke-linecap="round" />
  <path d="M256 314v48" fill="none" stroke="#62e5d4" stroke-width="28" stroke-linecap="round" />
  <circle cx="256" cy="300" r="24" fill="#62e5d4" />
  <path d="M116 396h280" fill="none" stroke="#62e5d4" stroke-width="20" stroke-linecap="round" opacity=".75" />
</svg>
